# xmcd CD database file
#
# Track frame offsets:
#	150
#	11526
#	21578
#	31605
#	42069
#	54614
#	65997
#	81173
#	92476
#	106999
#	119474
#	130463
#	140773
#	152884
#
# Disc length: 2180 seconds
#
# Revision: 2
# Processed by: cddbd v1.5.2PL0 Copyright (c) Steve Scherf et al.
# Submitted via: CDex 1.51
#
DISCID=c008820e
DTITLE=O.V. Wright - Nucleus Of Soul
DYEAR=2008
DGENRE=Soul
TTITLE0=Blowing In The Wind
TTITLE1=Gonna Forget About You
TTITLE2=I Have None
TTITLE3=You're So Good To Me
TTITLE4=Why Don't Give Me A Chance
TTITLE5=Pledging My Love
TTITLE6=This Hurt Is Real
TTITLE7=I'll Hate Myself Tomorrow
TTITLE8=I'll Take Care Of You
TTITLE9=I Want Everyone To Know
TTITLE10=Poor Boy
TTITLE11=I'm In Your Corner
TTITLE12=Gone For Good
TTITLE13=How Long Baby
EXTD=YEAR: 2008
EXTT0=
EXTT1=
EXTT2=
EXTT3=
EXTT4=
EXTT5=
EXTT6=
EXTT7=
EXTT8=
EXTT9=
EXTT10=
EXTT11=
EXTT12=
EXTT13=
PLAYORDER=
